<?xml version="1.0" encoding="UTF-8"?>
<svg width="312px" height="93px" viewBox="0 0 312 93" version="1.1" xmlns="http://www.w3.org/2000/svg" xmlns:xlink="http://www.w3.org/1999/xlink">
    <title>Artboard</title>
    <g id="Artboard" stroke="none" stroke-width="1" fill="none" fill-rule="evenodd">
        <g id="mix" transform="translate(29.000000, 47.000000) rotate(-90.000000) translate(-29.000000, -47.000000) translate(-5.000000, 18.000000)" fill="#000000" fill-rule="nonzero">
            <path d="M56.966485,41.9032828 L52.5481206,37.3820057 C51.2867674,36.1273694 51.2843487,34.0272567 52.5438879,32.7689996 C53.1739598,32.1383623 54.0023653,31.7919644 54.8295615,31.7919644 C55.654339,31.7919644 56.4797211,32.0918943 57.1097931,32.7183072 L67.0518687,42.6105621 C67.6583583,43.2134393 68,44.0305521 68,44.8850807 C68,45.7402128 67.6583583,46.5573256 67.0518687,47.1614097 L57.1097931,57.0590959 C55.8484398,58.3161461 53.8034271,58.3125252 52.5438879,57.0548716 C51.2843487,55.7966144 51.2867674,53.8805633 52.5481206,52.6247201 L56.966485,48.3484562 L52.8020844,48.3484562 C46.7928186,48.3484562 39.1291605,40.7132189 30.2537325,32.1552597 C22.9631593,25.1241066 13.886979,16.127417 9.40572841,16.127417 L3.22896752,16.127417 C1.44577928,16.127417 0.000604675565,14.6838913 0.000604675565,12.9054338 C0.000604675565,11.1269763 1.44638395,9.68284711 3.22896752,9.68284711 L9.40572841,9.68284711 C16.4979681,9.68284711 25.3606979,18.4755603 34.7422393,27.5217353 C40.9298843,33.4865381 49.405017,41.9032828 52.8020844,41.9032828 L56.966485,41.9032828 Z M67.051264,15.4285864 C67.6577536,14.8251058 67.9993953,14.0019582 67.9993953,13.1456191 C67.9993953,12.2929009 67.6577536,11.4679429 67.051264,10.8650657 L57.1091884,0.957723799 C56.4797211,0.330707399 55.6537343,0 54.8289568,0 C54.001156,0 53.1733551,0.286653311 52.5432832,0.917290596 C51.283744,2.1743408 51.2861627,4.15013646 52.5475159,5.40718667 L56.9658803,9.68345059 L52.8014797,9.68345059 C48.1225002,9.68345059 43.6092017,13.1594992 36.9166526,19.4049205 C35.6147861,20.6203305 35.5464578,22.7512207 36.764879,24.0487041 C37.9826956,25.3486014 40.0252897,25.3540328 41.3277608,24.1392262 C45.7201241,20.0415926 50.148768,16.127417 52.8014797,16.127417 L56.9658803,16.127417 L52.5475159,20.6492976 C51.2861627,21.9051408 51.283744,24.0649981 52.5432832,25.3238587 C53.8028224,26.5839263 55.8478352,26.5875472 57.1091884,25.3298935 L67.051264,15.4285864 Z M0,45.1270764 C0,46.9055339 1.44577928,48.3490596 3.22836284,48.3490596 L9.40512374,48.3490596 C14.6615684,48.3490596 19.9452235,44.4300563 26.2604551,38.7090597 C27.5798572,37.514168 27.67721,35.3675873 26.4799523,34.050189 C25.843229,33.3525654 24.9664494,33.0248754 24.0878558,33.0248754 C23.3138711,33.0248754 22.536863,33.3652385 21.9188846,33.9252685 C17.8796518,37.5835682 12.8082378,41.9032828 9.40572841,41.9032828 L3.22896752,41.9032828 C1.44577928,41.9032828 0,43.347412 0,45.1270764 L0,45.1270764 Z" id="XMLID_120_"></path>
        </g>
        <text id="LEANGREEN" font-family="AdelleSansDevanagari-Bold, Adelle Sans Devanagari" font-size="48" font-weight="bold" letter-spacing="-4.93333333">
            <tspan x="68" y="64" fill="#000000">LEAN</tspan>
            <tspan x="173.306667" y="64" fill="#762683">GREEN</tspan>
        </text>
    </g>
</svg>